<?xml version="1.0" encoding="UTF-8"?><svg id="Layer_1" xmlns="http://www.w3.org/2000/svg" viewBox="0 0 414.72 1705.43"><defs><style>.cls-1{stroke:#fff;stroke-width:3px;}.cls-1,.cls-2,.cls-3{fill:none;stroke-miterlimit:10;}.cls-2{stroke:#d7783a;}.cls-2,.cls-3{stroke-width:6px;}.cls-3{stroke:#353635;}.cls-4{fill:#f1b143;}.cls-5{fill:#f6c345;}.cls-6{fill:#fff14b;}.cls-7{fill:#eda040;}.cls-8{fill:#fcd547;}.cls-9{fill:#e7873c;}.cls-10{fill:#d7783a;}.cls-11{fill:#353635;}</style></defs><g><g><path class="cls-10" d="M169.51,185V111.2c0-7.6,6.2-13.8,13.8-13.8s13.8,6.2,13.8,13.8v73.8h27.1V111.2c0-7.6,6.2-13.8,13.8-13.8s13.8,6.2,13.8,13.8v73.8h27.2V107.9c0-22-17.8-39.8-39.8-39.8h0c-11.3,0-21.5,4.7-28.7,12.3-7.2-7.6-17.4-12.3-28.7-12.3-22,0-39.8,17.8-39.8,39.8v77.1h27.5Z"/><path class="cls-2" d="M169.51,185V111.2c0-7.6,6.2-13.8,13.8-13.8s13.8,6.2,13.8,13.8v73.8h27.1V111.2c0-7.6,6.2-13.8,13.8-13.8s13.8,6.2,13.8,13.8v73.8h27.2V107.9c0-22-17.8-39.8-39.8-39.8h0c-11.3,0-21.5,4.7-28.7,12.3-7.2-7.6-17.4-12.3-28.7-12.3-22,0-39.8,17.8-39.8,39.8v77.1h27.5Z"/><path class="cls-1" d="M169.51,185V111.2c0-7.6,6.2-13.8,13.8-13.8s13.8,6.2,13.8,13.8v73.8h27.1V111.2c0-7.6,6.2-13.8,13.8-13.8s13.8,6.2,13.8,13.8v73.8h27.2V107.9c0-22-17.8-39.8-39.8-39.8h0c-11.3,0-21.5,4.7-28.7,12.3-7.2-7.6-17.4-12.3-28.7-12.3-22,0-39.8,17.8-39.8,39.8v77.1h27.5Z"/></g><g><path class="cls-11" d="M96.41,67.8l-30.6,30.6c4.4,0,24.1-.3,25.3-.3,15.7,0,28.4,12.7,28.4,28.4s-12.7,28.4-28.4,28.4-28.4-12.7-28.4-28.4l.1-27.1V55.8h-30.4V126.5c0,32.4,26.3,58.7,58.7,58.7s58.7-26.3,58.7-58.7c.1-31.4-22.5-57-53.4-58.7Z"/><path class="cls-3" d="M96.41,67.8l-30.6,30.6c4.4,0,24.1-.3,25.3-.3,15.7,0,28.4,12.7,28.4,28.4s-12.7,28.4-28.4,28.4-28.4-12.7-28.4-28.4l.1-27.1V55.8h-30.4V126.5c0,32.4,26.3,58.7,58.7,58.7s58.7-26.3,58.7-58.7c.1-31.4-22.5-57-53.4-58.7Z"/><path class="cls-1" d="M96.41,67.8l-30.6,30.6c4.4,0,24.1-.3,25.3-.3,15.7,0,28.4,12.7,28.4,28.4s-12.7,28.4-28.4,28.4-28.4-12.7-28.4-28.4l.1-27.1V55.8h-30.4V126.5c0,32.4,26.3,58.7,58.7,58.7s58.7-26.3,58.7-58.7c.1-31.4-22.5-57-53.4-58.7Z"/></g><path class="cls-10" d="M91.61,140.6h0c-8.8,0-16-7.2-16-16v-15.5h15.5c8.8,0,16,7.2,16,16h0c0,8.6-7,15.5-15.5,15.5Z"/><g><path class="cls-11" d="M360.01,137.3c-4.3,10.3-14.4,17.5-26.2,17.5-15.7,0-28.4-12.7-28.4-28.4s12.7-28.4,28.4-28.4c.6,0,6.4,.1,12.5,.1l20.4-20.4c-9.4-6.4-20.7-10.1-32.9-10.1-32.4,0-58.7,26.3-58.7,58.7s26.3,58.7,58.7,58.7c20.2,0,37.9-10.2,48.5-25.6l-22.3-22.1Z"/><path class="cls-3" d="M360.01,137.3c-4.3,10.3-14.4,17.5-26.2,17.5-15.7,0-28.4-12.7-28.4-28.4s12.7-28.4,28.4-28.4c.6,0,6.4,.1,12.5,.1l20.4-20.4c-9.4-6.4-20.7-10.1-32.9-10.1-32.4,0-58.7,26.3-58.7,58.7s26.3,58.7,58.7,58.7c20.2,0,37.9-10.2,48.5-25.6l-22.3-22.1Z"/><path class="cls-1" d="M360.01,137.3c-4.3,10.3-14.4,17.5-26.2,17.5-15.7,0-28.4-12.7-28.4-28.4s12.7-28.4,28.4-28.4c.6,0,6.4,.1,12.5,.1l20.4-20.4c-9.4-6.4-20.7-10.1-32.9-10.1-32.4,0-58.7,26.3-58.7,58.7s26.3,58.7,58.7,58.7c20.2,0,37.9-10.2,48.5-25.6l-22.3-22.1Z"/></g></g><g><g><path class="cls-9" d="M169.51,428.4v-73.8c0-7.6,6.2-13.8,13.8-13.8s13.8,6.2,13.8,13.8v73.8h27.1v-73.8c0-7.6,6.2-13.8,13.8-13.8s13.8,6.2,13.8,13.8v73.8h27.2v-77.1c0-22-17.8-39.8-39.8-39.8h0c-11.3,0-21.5,4.7-28.7,12.3-7.2-7.6-17.4-12.3-28.7-12.3-22,0-39.8,17.8-39.8,39.8v77.1h27.5Z"/><path class="cls-2" d="M169.51,428.4v-73.8c0-7.6,6.2-13.8,13.8-13.8s13.8,6.2,13.8,13.8v73.8h27.1v-73.8c0-7.6,6.2-13.8,13.8-13.8s13.8,6.2,13.8,13.8v73.8h27.2v-77.1c0-22-17.8-39.8-39.8-39.8h0c-11.3,0-21.5,4.7-28.7,12.3-7.2-7.6-17.4-12.3-28.7-12.3-22,0-39.8,17.8-39.8,39.8v77.1h27.5Z"/><path class="cls-1" d="M169.51,428.4v-73.8c0-7.6,6.2-13.8,13.8-13.8s13.8,6.2,13.8,13.8v73.8h27.1v-73.8c0-7.6,6.2-13.8,13.8-13.8s13.8,6.2,13.8,13.8v73.8h27.2v-77.1c0-22-17.8-39.8-39.8-39.8h0c-11.3,0-21.5,4.7-28.7,12.3-7.2-7.6-17.4-12.3-28.7-12.3-22,0-39.8,17.8-39.8,39.8v77.1h27.5Z"/></g><g><path class="cls-11" d="M96.41,311.2l-30.6,30.6c4.4,0,24.1-.3,25.3-.3,15.7,0,28.4,12.7,28.4,28.4s-12.7,28.4-28.4,28.4-28.4-12.7-28.4-28.4l.1-27.1v-43.6h-30.4v70.7c0,32.4,26.3,58.7,58.7,58.7s58.7-26.3,58.7-58.7c.1-31.4-22.5-57-53.4-58.7Z"/><path class="cls-3" d="M96.41,311.2l-30.6,30.6c4.4,0,24.1-.3,25.3-.3,15.7,0,28.4,12.7,28.4,28.4s-12.7,28.4-28.4,28.4-28.4-12.7-28.4-28.4l.1-27.1v-43.6h-30.4v70.7c0,32.4,26.3,58.7,58.7,58.7s58.7-26.3,58.7-58.7c.1-31.4-22.5-57-53.4-58.7Z"/><path class="cls-1" d="M96.41,311.2l-30.6,30.6c4.4,0,24.1-.3,25.3-.3,15.7,0,28.4,12.7,28.4,28.4s-12.7,28.4-28.4,28.4-28.4-12.7-28.4-28.4l.1-27.1v-43.6h-30.4v70.7c0,32.4,26.3,58.7,58.7,58.7s58.7-26.3,58.7-58.7c.1-31.4-22.5-57-53.4-58.7Z"/></g><path class="cls-9" d="M91.61,384h0c-8.8,0-16-7.2-16-16v-15.5h15.5c8.8,0,16,7.2,16,16h0c0,8.6-7,15.5-15.5,15.5Z"/><g><path class="cls-11" d="M360.01,380.7c-4.3,10.3-14.4,17.5-26.2,17.5-15.7,0-28.4-12.7-28.4-28.4s12.7-28.4,28.4-28.4c.6,0,6.4,.1,12.5,.1l20.4-20.4c-9.4-6.4-20.7-10.1-32.9-10.1-32.4,0-58.7,26.3-58.7,58.7s26.3,58.7,58.7,58.7c20.2,0,37.9-10.2,48.5-25.6l-22.3-22.1Z"/><path class="cls-3" d="M360.01,380.7c-4.3,10.3-14.4,17.5-26.2,17.5-15.7,0-28.4-12.7-28.4-28.4s12.7-28.4,28.4-28.4c.6,0,6.4,.1,12.5,.1l20.4-20.4c-9.4-6.4-20.7-10.1-32.9-10.1-32.4,0-58.7,26.3-58.7,58.7s26.3,58.7,58.7,58.7c20.2,0,37.9-10.2,48.5-25.6l-22.3-22.1Z"/><path class="cls-1" d="M360.01,380.7c-4.3,10.3-14.4,17.5-26.2,17.5-15.7,0-28.4-12.7-28.4-28.4s12.7-28.4,28.4-28.4c.6,0,6.4,.1,12.5,.1l20.4-20.4c-9.4-6.4-20.7-10.1-32.9-10.1-32.4,0-58.7,26.3-58.7,58.7s26.3,58.7,58.7,58.7c20.2,0,37.9-10.2,48.5-25.6l-22.3-22.1Z"/></g></g><g><g><path class="cls-7" d="M169.51,671.8v-73.8c0-7.6,6.2-13.8,13.8-13.8s13.8,6.2,13.8,13.8v73.8h27.1v-73.8c0-7.6,6.2-13.8,13.8-13.8s13.8,6.2,13.8,13.8v73.8h27.2v-77.1c0-22-17.8-39.8-39.8-39.8h0c-11.3,0-21.5,4.7-28.7,12.3-7.2-7.6-17.4-12.3-28.7-12.3-22,0-39.8,17.8-39.8,39.8v77.1h27.5Z"/><path class="cls-2" d="M169.51,671.8v-73.8c0-7.6,6.2-13.8,13.8-13.8s13.8,6.2,13.8,13.8v73.8h27.1v-73.8c0-7.6,6.2-13.8,13.8-13.8s13.8,6.2,13.8,13.8v73.8h27.2v-77.1c0-22-17.8-39.8-39.8-39.8h0c-11.3,0-21.5,4.7-28.7,12.3-7.2-7.6-17.4-12.3-28.7-12.3-22,0-39.8,17.8-39.8,39.8v77.1h27.5Z"/><path class="cls-1" d="M169.51,671.8v-73.8c0-7.6,6.2-13.8,13.8-13.8s13.8,6.2,13.8,13.8v73.8h27.1v-73.8c0-7.6,6.2-13.8,13.8-13.8s13.8,6.2,13.8,13.8v73.8h27.2v-77.1c0-22-17.8-39.8-39.8-39.8h0c-11.3,0-21.5,4.7-28.7,12.3-7.2-7.6-17.4-12.3-28.7-12.3-22,0-39.8,17.8-39.8,39.8v77.1h27.5Z"/></g><g><path class="cls-11" d="M96.41,554.6l-30.6,30.6c4.4,0,24.1-.3,25.3-.3,15.7,0,28.4,12.7,28.4,28.4s-12.7,28.4-28.4,28.4-28.4-12.7-28.4-28.4l.1-27.1v-43.6h-30.4v70.7c0,32.4,26.3,58.7,58.7,58.7s58.7-26.3,58.7-58.7c.1-31.4-22.5-57-53.4-58.7Z"/><path class="cls-3" d="M96.41,554.6l-30.6,30.6c4.4,0,24.1-.3,25.3-.3,15.7,0,28.4,12.7,28.4,28.4s-12.7,28.4-28.4,28.4-28.4-12.7-28.4-28.4l.1-27.1v-43.6h-30.4v70.7c0,32.4,26.3,58.7,58.7,58.7s58.7-26.3,58.7-58.7c.1-31.4-22.5-57-53.4-58.7Z"/><path class="cls-1" d="M96.41,554.6l-30.6,30.6c4.4,0,24.1-.3,25.3-.3,15.7,0,28.4,12.7,28.4,28.4s-12.7,28.4-28.4,28.4-28.4-12.7-28.4-28.4l.1-27.1v-43.6h-30.4v70.7c0,32.4,26.3,58.7,58.7,58.7s58.7-26.3,58.7-58.7c.1-31.4-22.5-57-53.4-58.7Z"/></g><path class="cls-7" d="M91.61,627.4h0c-8.8,0-16-7.2-16-16v-15.5h15.5c8.8,0,16,7.2,16,16h0c0,8.6-7,15.5-15.5,15.5Z"/><g><path class="cls-11" d="M360.01,624.1c-4.3,10.3-14.4,17.5-26.2,17.5-15.7,0-28.4-12.7-28.4-28.4s12.7-28.4,28.4-28.4c.6,0,6.4,.1,12.5,.1l20.4-20.4c-9.4-6.4-20.7-10.1-32.9-10.1-32.4,0-58.7,26.3-58.7,58.7s26.3,58.7,58.7,58.7c20.2,0,37.9-10.2,48.5-25.6l-22.3-22.1Z"/><path class="cls-3" d="M360.01,624.1c-4.3,10.3-14.4,17.5-26.2,17.5-15.7,0-28.4-12.7-28.4-28.4s12.7-28.4,28.4-28.4c.6,0,6.4,.1,12.5,.1l20.4-20.4c-9.4-6.4-20.7-10.1-32.9-10.1-32.4,0-58.7,26.3-58.7,58.7s26.3,58.7,58.7,58.7c20.2,0,37.9-10.2,48.5-25.6l-22.3-22.1Z"/><path class="cls-1" d="M360.01,624.1c-4.3,10.3-14.4,17.5-26.2,17.5-15.7,0-28.4-12.7-28.4-28.4s12.7-28.4,28.4-28.4c.6,0,6.4,.1,12.5,.1l20.4-20.4c-9.4-6.4-20.7-10.1-32.9-10.1-32.4,0-58.7,26.3-58.7,58.7s26.3,58.7,58.7,58.7c20.2,0,37.9-10.2,48.5-25.6l-22.3-22.1Z"/></g></g><g><g><path class="cls-4" d="M169.51,915.2v-73.8c0-7.6,6.2-13.8,13.8-13.8s13.8,6.2,13.8,13.8v73.8h27.1v-73.8c0-7.6,6.2-13.8,13.8-13.8s13.8,6.2,13.8,13.8v73.8h27.2v-77.1c0-22-17.8-39.8-39.8-39.8h0c-11.3,0-21.5,4.7-28.7,12.3-7.2-7.6-17.4-12.3-28.7-12.3-22,0-39.8,17.8-39.8,39.8v77.1h27.5Z"/><path class="cls-2" d="M169.51,915.2v-73.8c0-7.6,6.2-13.8,13.8-13.8s13.8,6.2,13.8,13.8v73.8h27.1v-73.8c0-7.6,6.2-13.8,13.8-13.8s13.8,6.2,13.8,13.8v73.8h27.2v-77.1c0-22-17.8-39.8-39.8-39.8h0c-11.3,0-21.5,4.7-28.7,12.3-7.2-7.6-17.4-12.3-28.7-12.3-22,0-39.8,17.8-39.8,39.8v77.1h27.5Z"/><path class="cls-1" d="M169.51,915.2v-73.8c0-7.6,6.2-13.8,13.8-13.8s13.8,6.2,13.8,13.8v73.8h27.1v-73.8c0-7.6,6.2-13.8,13.8-13.8s13.8,6.2,13.8,13.8v73.8h27.2v-77.1c0-22-17.8-39.8-39.8-39.8h0c-11.3,0-21.5,4.7-28.7,12.3-7.2-7.6-17.4-12.3-28.7-12.3-22,0-39.8,17.8-39.8,39.8v77.1h27.5Z"/></g><g><path class="cls-11" d="M96.41,798l-30.6,30.6c4.4,0,24.1-.3,25.3-.3,15.7,0,28.4,12.7,28.4,28.4s-12.7,28.4-28.4,28.4-28.4-12.7-28.4-28.4l.1-27.1v-43.6h-30.4v70.7c0,32.4,26.3,58.7,58.7,58.7s58.7-26.3,58.7-58.7c.1-31.4-22.5-57-53.4-58.7Z"/><path class="cls-3" d="M96.41,798l-30.6,30.6c4.4,0,24.1-.3,25.3-.3,15.7,0,28.4,12.7,28.4,28.4s-12.7,28.4-28.4,28.4-28.4-12.7-28.4-28.4l.1-27.1v-43.6h-30.4v70.7c0,32.4,26.3,58.7,58.7,58.7s58.7-26.3,58.7-58.7c.1-31.4-22.5-57-53.4-58.7Z"/><path class="cls-1" d="M96.41,798l-30.6,30.6c4.4,0,24.1-.3,25.3-.3,15.7,0,28.4,12.7,28.4,28.4s-12.7,28.4-28.4,28.4-28.4-12.7-28.4-28.4l.1-27.1v-43.6h-30.4v70.7c0,32.4,26.3,58.7,58.7,58.7s58.7-26.3,58.7-58.7c.1-31.4-22.5-57-53.4-58.7Z"/></g><path class="cls-4" d="M91.61,870.8h0c-8.8,0-16-7.2-16-16v-15.5h15.5c8.8,0,16,7.2,16,16h0c0,8.6-7,15.5-15.5,15.5Z"/><g><path class="cls-11" d="M360.01,867.5c-4.3,10.3-14.4,17.5-26.2,17.5-15.7,0-28.4-12.7-28.4-28.4s12.7-28.4,28.4-28.4c.6,0,6.4,.1,12.5,.1l20.4-20.4c-9.4-6.4-20.7-10.1-32.9-10.1-32.4,0-58.7,26.3-58.7,58.7s26.3,58.7,58.7,58.7c20.2,0,37.9-10.2,48.5-25.6l-22.3-22.1Z"/><path class="cls-3" d="M360.01,867.5c-4.3,10.3-14.4,17.5-26.2,17.5-15.7,0-28.4-12.7-28.4-28.4s12.7-28.4,28.4-28.4c.6,0,6.4,.1,12.5,.1l20.4-20.4c-9.4-6.4-20.7-10.1-32.9-10.1-32.4,0-58.7,26.3-58.7,58.7s26.3,58.7,58.7,58.7c20.2,0,37.9-10.2,48.5-25.6l-22.3-22.1Z"/><path class="cls-1" d="M360.01,867.5c-4.3,10.3-14.4,17.5-26.2,17.5-15.7,0-28.4-12.7-28.4-28.4s12.7-28.4,28.4-28.4c.6,0,6.4,.1,12.5,.1l20.4-20.4c-9.4-6.4-20.7-10.1-32.9-10.1-32.4,0-58.7,26.3-58.7,58.7s26.3,58.7,58.7,58.7c20.2,0,37.9-10.2,48.5-25.6l-22.3-22.1Z"/></g></g><g><g><path class="cls-5" d="M169.51,1158.6v-73.8c0-7.6,6.2-13.8,13.8-13.8s13.8,6.2,13.8,13.8v73.8h27.1v-73.8c0-7.6,6.2-13.8,13.8-13.8s13.8,6.2,13.8,13.8v73.8h27.2v-77.1c0-22-17.8-39.8-39.8-39.8h0c-11.3,0-21.5,4.7-28.7,12.3-7.2-7.6-17.4-12.3-28.7-12.3-22,0-39.8,17.8-39.8,39.8v77.1h27.5Z"/><path class="cls-2" d="M169.51,1158.6v-73.8c0-7.6,6.2-13.8,13.8-13.8s13.8,6.2,13.8,13.8v73.8h27.1v-73.8c0-7.6,6.2-13.8,13.8-13.8s13.8,6.2,13.8,13.8v73.8h27.2v-77.1c0-22-17.8-39.8-39.8-39.8h0c-11.3,0-21.5,4.7-28.7,12.3-7.2-7.6-17.4-12.3-28.7-12.3-22,0-39.8,17.8-39.8,39.8v77.1h27.5Z"/><path class="cls-1" d="M169.51,1158.6v-73.8c0-7.6,6.2-13.8,13.8-13.8s13.8,6.2,13.8,13.8v73.8h27.1v-73.8c0-7.6,6.2-13.8,13.8-13.8s13.8,6.2,13.8,13.8v73.8h27.2v-77.1c0-22-17.8-39.8-39.8-39.8h0c-11.3,0-21.5,4.7-28.7,12.3-7.2-7.6-17.4-12.3-28.7-12.3-22,0-39.8,17.8-39.8,39.8v77.1h27.5Z"/></g><g><path class="cls-11" d="M96.41,1041.4l-30.6,30.6c4.4,0,24.1-.3,25.3-.3,15.7,0,28.4,12.7,28.4,28.4s-12.7,28.4-28.4,28.4-28.4-12.7-28.4-28.4l.1-27.1v-43.6h-30.4v70.7c0,32.4,26.3,58.7,58.7,58.7s58.7-26.3,58.7-58.7c.1-31.4-22.5-57-53.4-58.7Z"/><path class="cls-3" d="M96.41,1041.4l-30.6,30.6c4.4,0,24.1-.3,25.3-.3,15.7,0,28.4,12.7,28.4,28.4s-12.7,28.4-28.4,28.4-28.4-12.7-28.4-28.4l.1-27.1v-43.6h-30.4v70.7c0,32.4,26.3,58.7,58.7,58.7s58.7-26.3,58.7-58.7c.1-31.4-22.5-57-53.4-58.7Z"/><path class="cls-1" d="M96.41,1041.4l-30.6,30.6c4.4,0,24.1-.3,25.3-.3,15.7,0,28.4,12.7,28.4,28.4s-12.7,28.4-28.4,28.4-28.4-12.7-28.4-28.4l.1-27.1v-43.6h-30.4v70.7c0,32.4,26.3,58.7,58.7,58.7s58.7-26.3,58.7-58.7c.1-31.4-22.5-57-53.4-58.7Z"/></g><path class="cls-5" d="M91.61,1114.2h0c-8.8,0-16-7.2-16-16v-15.5h15.5c8.8,0,16,7.2,16,16h0c0,8.6-7,15.5-15.5,15.5Z"/><g><path class="cls-11" d="M360.01,1110.9c-4.3,10.3-14.4,17.5-26.2,17.5-15.7,0-28.4-12.7-28.4-28.4s12.7-28.4,28.4-28.4c.6,0,6.4,.1,12.5,.1l20.4-20.4c-9.4-6.4-20.7-10.1-32.9-10.1-32.4,0-58.7,26.3-58.7,58.7s26.3,58.7,58.7,58.7c20.2,0,37.9-10.2,48.5-25.6l-22.3-22.1Z"/><path class="cls-3" d="M360.01,1110.9c-4.3,10.3-14.4,17.5-26.2,17.5-15.7,0-28.4-12.7-28.4-28.4s12.7-28.4,28.4-28.4c.6,0,6.4,.1,12.5,.1l20.4-20.4c-9.4-6.4-20.7-10.1-32.9-10.1-32.4,0-58.7,26.3-58.7,58.7s26.3,58.7,58.7,58.7c20.2,0,37.9-10.2,48.5-25.6l-22.3-22.1Z"/><path class="cls-1" d="M360.01,1110.9c-4.3,10.3-14.4,17.5-26.2,17.5-15.7,0-28.4-12.7-28.4-28.4s12.7-28.4,28.4-28.4c.6,0,6.4,.1,12.5,.1l20.4-20.4c-9.4-6.4-20.7-10.1-32.9-10.1-32.4,0-58.7,26.3-58.7,58.7s26.3,58.7,58.7,58.7c20.2,0,37.9-10.2,48.5-25.6l-22.3-22.1Z"/></g></g><g><g><path class="cls-8" d="M169.51,1402v-73.8c0-7.6,6.2-13.8,13.8-13.8s13.8,6.2,13.8,13.8v73.8h27.1v-73.8c0-7.6,6.2-13.8,13.8-13.8s13.8,6.2,13.8,13.8v73.8h27.2v-77.1c0-22-17.8-39.8-39.8-39.8h0c-11.3,0-21.5,4.7-28.7,12.3-7.2-7.6-17.4-12.3-28.7-12.3-22,0-39.8,17.8-39.8,39.8v77.1h27.5Z"/><path class="cls-2" d="M169.51,1402v-73.8c0-7.6,6.2-13.8,13.8-13.8s13.8,6.2,13.8,13.8v73.8h27.1v-73.8c0-7.6,6.2-13.8,13.8-13.8s13.8,6.2,13.8,13.8v73.8h27.2v-77.1c0-22-17.8-39.8-39.8-39.8h0c-11.3,0-21.5,4.7-28.7,12.3-7.2-7.6-17.4-12.3-28.7-12.3-22,0-39.8,17.8-39.8,39.8v77.1h27.5Z"/><path class="cls-1" d="M169.51,1402v-73.8c0-7.6,6.2-13.8,13.8-13.8s13.8,6.2,13.8,13.8v73.8h27.1v-73.8c0-7.6,6.2-13.8,13.8-13.8s13.8,6.2,13.8,13.8v73.8h27.2v-77.1c0-22-17.8-39.8-39.8-39.8h0c-11.3,0-21.5,4.7-28.7,12.3-7.2-7.6-17.4-12.3-28.7-12.3-22,0-39.8,17.8-39.8,39.8v77.1h27.5Z"/></g><g><path class="cls-11" d="M96.41,1284.8l-30.6,30.6c4.4,0,24.1-.3,25.3-.3,15.7,0,28.4,12.7,28.4,28.4s-12.7,28.4-28.4,28.4-28.4-12.7-28.4-28.4l.1-27.1v-43.6h-30.4v70.7c0,32.4,26.3,58.7,58.7,58.7s58.7-26.3,58.7-58.7c.1-31.4-22.5-57-53.4-58.7Z"/><path class="cls-3" d="M96.41,1284.8l-30.6,30.6c4.4,0,24.1-.3,25.3-.3,15.7,0,28.4,12.7,28.4,28.4s-12.7,28.4-28.4,28.4-28.4-12.7-28.4-28.4l.1-27.1v-43.6h-30.4v70.7c0,32.4,26.3,58.7,58.7,58.7s58.7-26.3,58.7-58.7c.1-31.4-22.5-57-53.4-58.7Z"/><path class="cls-1" d="M96.41,1284.8l-30.6,30.6c4.4,0,24.1-.3,25.3-.3,15.7,0,28.4,12.7,28.4,28.4s-12.7,28.4-28.4,28.4-28.4-12.7-28.4-28.4l.1-27.1v-43.6h-30.4v70.7c0,32.4,26.3,58.7,58.7,58.7s58.7-26.3,58.7-58.7c.1-31.4-22.5-57-53.4-58.7Z"/></g><path class="cls-8" d="M91.61,1357.6h0c-8.8,0-16-7.2-16-16v-15.5h15.5c8.8,0,16,7.2,16,16h0c0,8.6-7,15.5-15.5,15.5Z"/><g><path class="cls-11" d="M360.01,1354.3c-4.3,10.3-14.4,17.5-26.2,17.5-15.7,0-28.4-12.7-28.4-28.4s12.7-28.4,28.4-28.4c.6,0,6.4,.1,12.5,.1l20.4-20.4c-9.4-6.4-20.7-10.1-32.9-10.1-32.4,0-58.7,26.3-58.7,58.7s26.3,58.7,58.7,58.7c20.2,0,37.9-10.2,48.5-25.6l-22.3-22.1Z"/><path class="cls-3" d="M360.01,1354.3c-4.3,10.3-14.4,17.5-26.2,17.5-15.7,0-28.4-12.7-28.4-28.4s12.7-28.4,28.4-28.4c.6,0,6.4,.1,12.5,.1l20.4-20.4c-9.4-6.4-20.7-10.1-32.9-10.1-32.4,0-58.7,26.3-58.7,58.7s26.3,58.7,58.7,58.7c20.2,0,37.9-10.2,48.5-25.6l-22.3-22.1Z"/><path class="cls-1" d="M360.01,1354.3c-4.3,10.3-14.4,17.5-26.2,17.5-15.7,0-28.4-12.7-28.4-28.4s12.7-28.4,28.4-28.4c.6,0,6.4,.1,12.5,.1l20.4-20.4c-9.4-6.4-20.7-10.1-32.9-10.1-32.4,0-58.7,26.3-58.7,58.7s26.3,58.7,58.7,58.7c20.2,0,37.9-10.2,48.5-25.6l-22.3-22.1Z"/></g></g><g><g><path class="cls-6" d="M169.51,1645.4v-73.8c0-7.6,6.2-13.8,13.8-13.8s13.8,6.2,13.8,13.8v73.8h27.1v-73.8c0-7.6,6.2-13.8,13.8-13.8s13.8,6.2,13.8,13.8v73.8h27.2v-77.1c0-22-17.8-39.8-39.8-39.8h0c-11.3,0-21.5,4.7-28.7,12.3-7.2-7.6-17.4-12.3-28.7-12.3-22,0-39.8,17.8-39.8,39.8v77.1h27.5Z"/><path class="cls-2" d="M169.51,1645.4v-73.8c0-7.6,6.2-13.8,13.8-13.8s13.8,6.2,13.8,13.8v73.8h27.1v-73.8c0-7.6,6.2-13.8,13.8-13.8s13.8,6.2,13.8,13.8v73.8h27.2v-77.1c0-22-17.8-39.8-39.8-39.8h0c-11.3,0-21.5,4.7-28.7,12.3-7.2-7.6-17.4-12.3-28.7-12.3-22,0-39.8,17.8-39.8,39.8v77.1h27.5Z"/><path class="cls-1" d="M169.51,1645.4v-73.8c0-7.6,6.2-13.8,13.8-13.8s13.8,6.2,13.8,13.8v73.8h27.1v-73.8c0-7.6,6.2-13.8,13.8-13.8s13.8,6.2,13.8,13.8v73.8h27.2v-77.1c0-22-17.8-39.8-39.8-39.8h0c-11.3,0-21.5,4.7-28.7,12.3-7.2-7.6-17.4-12.3-28.7-12.3-22,0-39.8,17.8-39.8,39.8v77.1h27.5Z"/></g><g><path class="cls-11" d="M96.41,1528.2l-30.6,30.6c4.4,0,24.1-.3,25.3-.3,15.7,0,28.4,12.7,28.4,28.4s-12.7,28.4-28.4,28.4-28.4-12.7-28.4-28.4l.1-27.1v-43.6h-30.4v70.7c0,32.4,26.3,58.7,58.7,58.7s58.7-26.3,58.7-58.7c.1-31.4-22.5-57-53.4-58.7Z"/><path class="cls-3" d="M96.41,1528.2l-30.6,30.6c4.4,0,24.1-.3,25.3-.3,15.7,0,28.4,12.7,28.4,28.4s-12.7,28.4-28.4,28.4-28.4-12.7-28.4-28.4l.1-27.1v-43.6h-30.4v70.7c0,32.4,26.3,58.7,58.7,58.7s58.7-26.3,58.7-58.7c.1-31.4-22.5-57-53.4-58.7Z"/><path class="cls-1" d="M96.41,1528.2l-30.6,30.6c4.4,0,24.1-.3,25.3-.3,15.7,0,28.4,12.7,28.4,28.4s-12.7,28.4-28.4,28.4-28.4-12.7-28.4-28.4l.1-27.1v-43.6h-30.4v70.7c0,32.4,26.3,58.7,58.7,58.7s58.7-26.3,58.7-58.7c.1-31.4-22.5-57-53.4-58.7Z"/></g><path class="cls-6" d="M91.61,1601h0c-8.8,0-16-7.2-16-16v-15.5h15.5c8.8,0,16,7.2,16,16h0c0,8.6-7,15.5-15.5,15.5Z"/><g><path class="cls-11" d="M360.01,1597.7c-4.3,10.3-14.4,17.5-26.2,17.5-15.7,0-28.4-12.7-28.4-28.4s12.7-28.4,28.4-28.4c.6,0,6.4,.1,12.5,.1l20.4-20.4c-9.4-6.4-20.7-10.1-32.9-10.1-32.4,0-58.7,26.3-58.7,58.7s26.3,58.7,58.7,58.7c20.2,0,37.9-10.2,48.5-25.6l-22.3-22.1Z"/><path class="cls-3" d="M360.01,1597.7c-4.3,10.3-14.4,17.5-26.2,17.5-15.7,0-28.4-12.7-28.4-28.4s12.7-28.4,28.4-28.4c.6,0,6.4,.1,12.5,.1l20.4-20.4c-9.4-6.4-20.7-10.1-32.9-10.1-32.4,0-58.7,26.3-58.7,58.7s26.3,58.7,58.7,58.7c20.2,0,37.9-10.2,48.5-25.6l-22.3-22.1Z"/><path class="cls-1" d="M360.01,1597.7c-4.3,10.3-14.4,17.5-26.2,17.5-15.7,0-28.4-12.7-28.4-28.4s12.7-28.4,28.4-28.4c.6,0,6.4,.1,12.5,.1l20.4-20.4c-9.4-6.4-20.7-10.1-32.9-10.1-32.4,0-58.7,26.3-58.7,58.7s26.3,58.7,58.7,58.7c20.2,0,37.9-10.2,48.5-25.6l-22.3-22.1Z"/></g></g></svg>